<svg width="12" height="15" viewBox="0 0 12 15" fill="none" xmlns="http://www.w3.org/2000/svg">
<path d="M0.0458984 9.12451H1.72754V10.9087H0.0458984V12.375H1.72754V15H3.30664V12.375H8.4541V10.9087H3.30664V9.12451H7.19287C8.54639 9.12451 9.65381 8.71436 10.5151 7.87354C11.3765 7.04297 11.8071 5.98682 11.8071 4.71533C11.8071 3.44385 11.3765 2.3877 10.5151 1.55713C9.65381 0.716309 8.54639 0.306152 7.18262 0.306152H1.71729V7.6582H0.0356445L0.0458984 9.12451ZM7.18262 1.78271C8.06445 1.78271 8.79248 2.05957 9.3667 2.62354C9.94092 3.17725 10.228 3.87451 10.228 4.71533C10.228 5.55615 9.94092 6.25342 9.3667 6.81738C8.79248 7.37109 8.06445 7.6582 7.18262 7.6582H3.29639V1.78271H7.18262Z" fill="white"/>
</svg>
