<svg width="20" height="20" viewBox="0 0 20 20" fill="none" xmlns="http://www.w3.org/2000/svg">
<path d="M12.376 10H17.92" stroke="#FFE55C" stroke-width="1.5" stroke-linecap="round" stroke-linejoin="round"/>
<path d="M2.08008 10H3.46641" stroke="#FFE55C" stroke-width="1.5" stroke-linecap="round" stroke-linejoin="round"/>
<path d="M8.81301 12.056L6.04004 16.8589" stroke="#FFE55C" stroke-width="1.5" stroke-linecap="round" stroke-linejoin="round"/>
<path d="M13.9601 3.14111L13.2669 4.34171" stroke="#FFE55C" stroke-width="1.5" stroke-linecap="round" stroke-linejoin="round"/>
<path d="M8.81303 7.94406L6.04004 3.14111" stroke="#FFE55C" stroke-width="1.5" stroke-linecap="round" stroke-linejoin="round"/>
<path d="M13.96 16.8589L13.2668 15.6583" stroke="#FFE55C" stroke-width="1.5" stroke-linecap="round" stroke-linejoin="round"/>
<path d="M14.6199 5.38013C17.1714 7.93162 17.1714 12.0684 14.6199 14.6199C12.0684 17.1714 7.93165 17.1714 5.38017 14.6199C2.82868 12.0684 2.82868 7.93162 5.38017 5.38013C6.60539 4.15478 8.26722 3.46637 10 3.46637C11.7329 3.46637 13.3947 4.15478 14.6199 5.38013" stroke="#FFE55C" stroke-width="1.5" stroke-linecap="round" stroke-linejoin="round"/>
<circle cx="10" cy="10" r="2.37599" stroke="#FFE55C" stroke-width="1.5" stroke-linecap="round" stroke-linejoin="round"/>
<path d="M3.14111 13.96L4.34171 13.2669" stroke="#FFE55C" stroke-width="1.5" stroke-linecap="round" stroke-linejoin="round"/>
<path d="M16.8589 6.04005L15.6583 6.73321" stroke="#FFE55C" stroke-width="1.5" stroke-linecap="round" stroke-linejoin="round"/>
<path d="M9.99997 17.92V16.5336" stroke="#FFE55C" stroke-width="1.5" stroke-linecap="round" stroke-linejoin="round"/>
<path d="M9.99997 2.08008V3.46641" stroke="#FFE55C" stroke-width="1.5" stroke-linecap="round" stroke-linejoin="round"/>
<path d="M16.8589 13.96L15.6583 13.2669" stroke="#FFE55C" stroke-width="1.5" stroke-linecap="round" stroke-linejoin="round"/>
<path d="M3.14111 6.04005L4.34171 6.73321" stroke="#FFE55C" stroke-width="1.5" stroke-linecap="round" stroke-linejoin="round"/>
</svg>
